<svg xmlns="http://www.w3.org/2000/svg" viewBox="0 0 512 512">
  <circle cx="256" cy="256" r="230" fill="#f44336"/>
  <path d="M256 26a230 230 0 0 0-230 230 230 230 0 0 0 230 230 230 230 0 0 0 230-230A230 230 0 0 0 256 26zm0 40a190 190 0 1 1-190 190 190 190 0 0 1 190-190z" fill="#c62828"/>
  <rect x="240" y="100" width="32" height="180" rx="16" fill="#fff"/>
  <rect x="240" y="240" width="32" height="140" rx="16" transform="rotate(90 256 256)" fill="#fff"/>
  <circle cx="256" cy="256" r="20" fill="#fff"/>
  <path d="M256 80 Q 300 20 350 60 L 320 90 Q 290 60 256 80 Z" fill="#4CAF50"/>
</svg>